<svg width="30" height="30" viewBox="0 0 30 30" fill="none" xmlns="http://www.w3.org/2000/svg">
<path d="M8.75 10H21.25M8.75 15H13.75M15 25L10 20H6.25C5.58696 20 4.95107 19.7366 4.48223 19.2678C4.01339 18.7989 3.75 18.163 3.75 17.5V7.5C3.75 6.83696 4.01339 6.20107 4.48223 5.73223C4.95107 5.26339 5.58696 5 6.25 5H23.75C24.413 5 25.0489 5.26339 25.5178 5.73223C25.9866 6.20107 26.25 6.83696 26.25 7.5V17.5C26.25 18.163 25.9866 18.7989 25.5178 19.2678C25.0489 19.7366 24.413 20 23.75 20H20L15 25Z" stroke="white" stroke-width="2" stroke-linecap="round" stroke-linejoin="round"/>
</svg>
