<svg width="21" height="20" viewBox="0 0 21 20" fill="none" xmlns="http://www.w3.org/2000/svg">
<path d="M9.02466 2C8.49423 2 7.98552 2.21071 7.61044 2.58579C7.23537 2.96086 7.02466 3.46957 7.02466 4V12C7.02466 12.5304 7.23537 13.0391 7.61044 13.4142C7.98552 13.7893 8.49423 14 9.02466 14H15.0247C15.5551 14 16.0638 13.7893 16.4389 13.4142C16.8139 13.0391 17.0247 12.5304 17.0247 12V6.414C17.0245 5.88361 16.8138 5.37499 16.4387 5L14.0247 2.586C13.6497 2.2109 13.141 2.00011 12.6107 2H9.02466Z" fill="white"/>
<path d="M3.02466 8C3.02466 7.46957 3.23537 6.96086 3.61044 6.58579C3.98552 6.21071 4.49423 6 5.02466 6V16H13.0247C13.0247 16.5304 12.8139 17.0391 12.4389 17.4142C12.0638 17.7893 11.5551 18 11.0247 18H5.02466C4.49423 18 3.98552 17.7893 3.61044 17.4142C3.23537 17.0391 3.02466 16.5304 3.02466 16V8Z" fill="white"/>
</svg>
