<svg width="15" height="16" viewBox="0 0 15 16" fill="none" xmlns="http://www.w3.org/2000/svg">
<path d="M10.586 1.59829C10.7705 1.40726 10.9912 1.2549 11.2352 1.15008C11.4792 1.04526 11.7416 0.990092 12.0072 0.987785C12.2728 0.985477 12.5361 1.03608 12.7819 1.13664C13.0277 1.2372 13.251 1.38571 13.4388 1.5735C13.6266 1.76128 13.7751 1.98458 13.8756 2.23038C13.9762 2.47617 14.0268 2.73953 14.0245 3.00509C14.0222 3.27065 13.967 3.53309 13.8622 3.77709C13.7574 4.0211 13.605 4.24179 13.414 4.42629L12.621 5.21929L9.793 2.39129L10.586 1.59829ZM8.379 3.80529L0 12.1843V15.0123H2.828L11.208 6.63329L8.379 3.80529Z" fill="white"/>
</svg>
