<svg width="34" height="42" viewBox="0 0 34 42" fill="none" xmlns="http://www.w3.org/2000/svg">
<path d="M25.4444 9.88889C25.4444 12.2464 24.5079 14.5073 22.8409 16.1743C21.174 17.8413 18.913 18.7778 16.5556 18.7778C14.1981 18.7778 11.9372 17.8413 10.2702 16.1743C8.60317 14.5073 7.66667 12.2464 7.66667 9.88889C7.66667 7.53141 8.60317 5.27049 10.2702 3.60349C11.9372 1.9365 14.1981 1 16.5556 1C18.913 1 21.174 1.9365 22.8409 3.60349C24.5079 5.27049 25.4444 7.53141 25.4444 9.88889ZM16.5556 25.4444C12.43 25.4444 8.47335 27.0833 5.55612 30.0006C2.63888 32.9178 1 36.8744 1 41H32.1111C32.1111 36.8744 30.4722 32.9178 27.555 30.0006C24.6378 27.0833 20.6811 25.4444 16.5556 25.4444Z" stroke="white" stroke-width="2" stroke-linecap="round" stroke-linejoin="round"/>
</svg>
